<?xml version="1.0" encoding="UTF-8"?>
<svg id="logo" data-name="logo" xmlns="http://www.w3.org/2000/svg" viewBox="0 0 15.1 15.1">
  <defs>
    <style>
      .cls-1 {
        fill: #fff;
      }

      .cls-2 {
        fill: #4c7cbf;
      }
    </style>
  </defs>
  <g id="logo" data-name="logo">
    <circle class="cls-1" cx="7.55" cy="7.55" r="7.55"/>
    <g>
      <path class="cls-2" d="m8.13,6.22c-1.66.4-3.13-1.06-2.73-2.73.19-.78.83-1.42,1.61-1.61,1.66-.4,3.13,1.06,2.73,2.73-.19.78-.83,1.42-1.61,1.61Zm-.56-3.34c-.65,0-1.17.53-1.17,1.17s.53,1.17,1.17,1.17,1.17-.53,1.17-1.17-.53-1.17-1.17-1.17Z"/>
      <rect class="cls-2" x="7.08" y="5.83" width=".97" height="7.22"/>
      <rect class="cls-2" x="5.4" y="6.57" width="4.31" height=".99" rx=".36" ry=".36"/>
      <path class="cls-2" d="m7.55,13.23c-1.09,0-2.12-.35-2.9-.99-.81-.66-1.25-1.56-1.25-2.51h1.07c0,1.34,1.38,2.44,3.08,2.44s3.08-1.09,3.08-2.44h1.07c0,.96-.45,1.85-1.25,2.51-.78.64-1.81.99-2.9.99Z"/>
      <path class="cls-2" d="m12.22,9.78h-2.1c-.1,0-.17-.09-.13-.18l1.05-1.82c.06-.1.2-.1.25,0l1.05,1.82c.05.08-.02.18-.13.18Z"/>
      <path class="cls-2" d="m4.99,9.78h-2.1c-.1,0-.17-.09-.13-.18l1.05-1.82c.06-.1.2-.1.25,0l1.05,1.82c.05.08-.02.18-.13.18Z"/>
    </g>
  </g>
</svg>